<svg width="52" height="47" viewBox="0 0 52 47" fill="none" xmlns="http://www.w3.org/2000/svg">
<path d="M26 0.699219C23.7324 0.699219 21.5577 1.60002 19.9543 3.20346C18.3508 4.80689 17.45 6.98162 17.45 9.24922C17.45 11.5168 18.3508 13.6915 19.9543 15.295C21.5577 16.8984 23.7324 17.7992 26 17.7992C28.2676 17.7992 30.4424 16.8984 32.0458 15.295C33.6492 13.6915 34.55 11.5168 34.55 9.24922C34.55 6.98162 33.6492 4.80689 32.0458 3.20346C30.4424 1.60002 28.2676 0.699219 26 0.699219ZM11.9011 23.4878C11.8042 23.9514 11.7557 24.4302 11.7557 24.9242V34.8992C11.7539 36.9683 12.2035 39.0129 13.0733 40.8903C13.9431 42.7677 15.2121 44.4327 16.7917 45.7691L16.3043 45.9116C14.8582 46.2995 13.3497 46.3988 11.8652 46.2037C10.3807 46.0085 8.94912 45.5229 7.6523 44.7744C6.35549 44.026 5.21882 43.0294 4.30721 41.8416C3.3956 40.6538 2.7269 39.2981 2.33932 37.8518L0.495372 30.9691C0.350138 30.4268 0.313147 29.8611 0.386511 29.3045C0.459875 28.7479 0.642158 28.2112 0.922951 27.7251C1.20374 27.2389 1.57755 26.8128 2.02302 26.4711C2.46849 26.1294 2.9769 25.8788 3.51922 25.7336L11.9011 23.4878ZM35.2198 45.7691C36.7994 44.4327 38.0684 42.7677 38.9381 40.8903C39.8079 39.0129 40.2576 36.9683 40.2557 34.8992V24.9242C40.2538 24.4302 40.2063 23.9514 40.1132 23.4878L48.4922 25.7336C49.587 26.0275 50.5202 26.7441 51.0867 27.7259C51.6532 28.7076 51.8066 29.8742 51.5132 30.9691L49.6693 37.8518C49.2706 39.339 48.5748 40.7301 47.6238 41.941C46.6728 43.152 45.4864 44.1577 44.136 44.8976C42.7857 45.6374 41.2995 46.0961 39.7671 46.2459C38.2347 46.3957 36.6878 46.2335 35.2198 45.7691ZM44.525 6.39922C42.6354 6.39922 40.8231 7.14989 39.4869 8.48608C38.1507 9.82228 37.4 11.6346 37.4 13.5242C37.4 15.4139 38.1507 17.2262 39.4869 18.5624C40.8231 19.8986 42.6354 20.6492 44.525 20.6492C46.4147 20.6492 48.227 19.8986 49.5632 18.5624C50.8994 17.2262 51.65 15.4139 51.65 13.5242C51.65 11.6346 50.8994 9.82228 49.5632 8.48608C48.227 7.14989 46.4147 6.39922 44.525 6.39922ZM7.47502 6.39922C5.58535 6.39922 3.77308 7.14989 2.43689 8.48608C1.10069 9.82228 0.350022 11.6346 0.350022 13.5242C0.350022 15.4139 1.10069 17.2262 2.43689 18.5624C3.77308 19.8986 5.58535 20.6492 7.47502 20.6492C9.36469 20.6492 11.177 19.8986 12.5132 18.5624C13.8494 17.2262 14.6 15.4139 14.6 13.5242C14.6 11.6346 13.8494 9.82228 12.5132 8.48608C11.177 7.14989 9.36469 6.39922 7.47502 6.39922ZM18.875 20.6492C17.7412 20.6492 16.6539 21.0996 15.8521 21.9013C15.0504 22.7031 14.6 23.7904 14.6 24.9242V34.8992C14.6 37.9227 15.8011 40.8223 17.939 42.9602C20.0769 45.0981 22.9766 46.2992 26 46.2992C29.0235 46.2992 31.9231 45.0981 34.061 42.9602C36.199 40.8223 37.4 37.9227 37.4 34.8992V24.9242C37.4 23.7904 36.9496 22.7031 36.1479 21.9013C35.3462 21.0996 34.2588 20.6492 33.125 20.6492H18.875Z" fill="#98D3FF"/>
</svg>
