<svg width="48" height="43" viewBox="0 0 48 43" fill="none" xmlns="http://www.w3.org/2000/svg">
<path d="M19.25 31V28.625H2.64875L2.625 38.125C2.625 40.7612 4.73875 42.875 7.375 42.875H40.625C43.2612 42.875 45.375 40.7612 45.375 38.125V28.625H28.75V31H19.25ZM43 9.625H33.4762V4.875L28.7262 0.125H19.2262L14.4762 4.875V9.625H5C2.3875 9.625 0.25 11.7625 0.25 14.375V21.5C0.25 24.1362 2.36375 26.25 5 26.25H19.25V21.5H28.75V26.25H43C45.6125 26.25 47.75 24.1125 47.75 21.5V14.375C47.75 11.7625 45.6125 9.625 43 9.625ZM28.75 9.625H19.25V4.875H28.75V9.625Z" fill="#98D3FF"/>
</svg>
