<svg width="48" height="49" viewBox="0 0 48 49" fill="none" xmlns="http://www.w3.org/2000/svg">
<path d="M24 0.75C37.1171 0.75 47.75 11.3829 47.75 24.5C47.75 37.6171 37.1171 48.25 24 48.25C10.8829 48.25 0.25 37.6171 0.25 24.5C0.25 11.3829 10.8829 0.75 24 0.75ZM24 5.5C18.9609 5.5 14.1282 7.50178 10.565 11.065C7.00178 14.6282 5 19.4609 5 24.5C5 29.5391 7.00178 34.3718 10.565 37.935C14.1282 41.4982 18.9609 43.5 24 43.5C29.0391 43.5 33.8718 41.4982 37.435 37.935C40.9982 34.3718 43 29.5391 43 24.5C43 19.4609 40.9982 14.6282 37.435 11.065C33.8718 7.50178 29.0391 5.5 24 5.5ZM13.3125 20.9375C14.2573 20.9375 15.1635 21.3128 15.8316 21.9809C16.4997 22.649 16.875 23.5552 16.875 24.5C16.875 25.4448 16.4997 26.351 15.8316 27.0191C15.1635 27.6872 14.2573 28.0625 13.3125 28.0625C12.3677 28.0625 11.4615 27.6872 10.7934 27.0191C10.1253 26.351 9.75 25.4448 9.75 24.5C9.75 23.5552 10.1253 22.649 10.7934 21.9809C11.4615 21.3128 12.3677 20.9375 13.3125 20.9375ZM24 20.9375C24.9448 20.9375 25.851 21.3128 26.5191 21.9809C27.1872 22.649 27.5625 23.5552 27.5625 24.5C27.5625 25.4448 27.1872 26.351 26.5191 27.0191C25.851 27.6872 24.9448 28.0625 24 28.0625C23.0552 28.0625 22.149 27.6872 21.4809 27.0191C20.8128 26.351 20.4375 25.4448 20.4375 24.5C20.4375 23.5552 20.8128 22.649 21.4809 21.9809C22.149 21.3128 23.0552 20.9375 24 20.9375ZM34.6875 20.9375C35.6323 20.9375 36.5385 21.3128 37.2066 21.9809C37.8747 22.649 38.25 23.5552 38.25 24.5C38.25 25.4448 37.8747 26.351 37.2066 27.0191C36.5385 27.6872 35.6323 28.0625 34.6875 28.0625C33.7427 28.0625 32.8365 27.6872 32.1684 27.0191C31.5003 26.351 31.125 25.4448 31.125 24.5C31.125 23.5552 31.5003 22.649 32.1684 21.9809C32.8365 21.3128 33.7427 20.9375 34.6875 20.9375Z" fill="#98D3FF"/>
</svg>
