<svg width="46" height="47" viewBox="0 0 46 47" fill="none" xmlns="http://www.w3.org/2000/svg">
<path d="M20.625 9.25096H27.75L35.5637 1.41346C35.7845 1.19085 36.0472 1.01417 36.3366 0.893591C36.626 0.773016 36.9365 0.710937 37.25 0.710938C37.5635 0.710937 37.8739 0.773016 38.1634 0.893591C38.4528 1.01417 38.7155 1.19085 38.9362 1.41346L45.0637 7.56471C45.5061 8.00969 45.7544 8.61164 45.7544 9.23908C45.7544 9.86652 45.5061 10.4685 45.0637 10.9135L39.625 16.376H20.625V21.126C20.625 21.7558 20.3748 22.3599 19.9294 22.8053C19.484 23.2507 18.8799 23.501 18.25 23.501C17.6201 23.501 17.016 23.2507 16.5706 22.8053C16.1252 22.3599 15.875 21.7558 15.875 21.126V14.001C15.875 12.7412 16.3754 11.533 17.2662 10.6422C18.157 9.7514 19.3652 9.25096 20.625 9.25096ZM6.37499 21.126V30.626L0.936238 36.0647C0.493892 36.5097 0.245605 37.1116 0.245605 37.7391C0.245605 38.3665 0.493892 38.9685 0.936238 39.4135L7.06374 45.5647C7.28452 45.7873 7.5472 45.964 7.83662 46.0846C8.12603 46.2052 8.43646 46.2672 8.74999 46.2672C9.06352 46.2672 9.37394 46.2052 9.66336 46.0846C9.95277 45.964 10.2155 45.7873 10.4362 45.5647L20.625 35.376H30.125C30.7549 35.376 31.359 35.1257 31.8044 34.6803C32.2498 34.2349 32.5 33.6308 32.5 33.001V30.626H34.875C35.5049 30.626 36.109 30.3757 36.5544 29.9303C36.9998 29.4849 37.25 28.8808 37.25 28.251V25.876H39.625C40.2549 25.876 40.859 25.6257 41.3044 25.1803C41.7498 24.7349 42 24.1308 42 23.501V21.126H25.375V23.501C25.375 24.7607 24.8745 25.9689 23.9837 26.8597C23.0929 27.7505 21.8848 28.251 20.625 28.251H15.875C14.6152 28.251 13.407 27.7505 12.5162 26.8597C11.6254 25.9689 11.125 24.7607 11.125 23.501V16.376L6.37499 21.126Z" fill="#98D3FF"/>
</svg>
