<svg width="56" height="55" viewBox="0 0 56 55" fill="none" xmlns="http://www.w3.org/2000/svg">
<path fill-rule="evenodd" clip-rule="evenodd" d="M26.2205 40.318L15.1812 29.2787C16.3951 27.2476 17.6051 25.1458 18.8033 23.0558C22.7948 16.118 26.6919 9.34511 30.3455 5.82118C40.2612 -4.09454 53.8423 1.65689 53.8423 1.65689C53.8423 1.65689 59.5898 15.238 49.678 25.1537C46.1815 28.7758 39.5148 32.618 32.628 36.578C30.483 37.8155 28.3183 39.0608 26.2205 40.318ZM34.6276 14.6565C34.6276 13.0082 35.2824 11.4274 36.4479 10.2619C37.6135 9.09633 39.1943 8.44154 40.8426 8.44154C42.4909 8.44154 44.0717 9.09633 45.2373 10.2619C46.4028 11.4274 47.0576 13.0082 47.0576 14.6565C47.0169 16.2773 46.3444 17.818 45.1837 18.9499C44.0229 20.0818 42.4658 20.7153 40.8446 20.7153C39.2233 20.7153 37.6662 20.0818 36.5055 18.9499C35.3448 17.818 34.6684 16.2773 34.6276 14.6565ZM18.5598 13.7451C12.989 12.264 7.76011 15.0062 3.12047 19.2608C2.90651 19.4624 2.74263 19.7112 2.64192 19.9873C2.54121 20.2635 2.50645 20.5593 2.54042 20.8513C2.57439 21.1433 2.67614 21.4233 2.83756 21.6689C2.99898 21.9146 3.2156 22.1191 3.47011 22.2662L10.954 26.7762L10.9619 26.7605C12.0423 24.9533 13.2483 22.8594 14.474 20.738C15.8687 18.314 17.2869 15.8548 18.5598 13.7451ZM28.723 44.5451L33.233 52.029C33.3804 52.2833 33.5852 52.4995 33.831 52.6606C34.0768 52.8216 34.3569 52.923 34.6488 52.9566C34.9408 52.9902 35.2366 52.955 35.5125 52.854C35.7885 52.753 36.037 52.5889 36.2383 52.3747C40.493 47.739 43.239 42.5062 41.754 36.9355C39.7033 38.169 37.5505 39.4105 35.4173 40.6401L35.0912 40.8287C32.9383 42.0701 30.8051 43.2958 28.7426 44.5333L28.723 44.5451ZM10.8008 36.7037C12.3886 36.6755 13.9477 37.1292 15.2725 38.0049C16.5973 38.8805 17.6257 40.1371 18.2221 41.6089C18.8185 43.0807 18.9549 44.6987 18.6133 46.2496C18.2717 47.8005 17.4682 49.2115 16.3087 50.2965C15.4365 51.1294 14.0733 51.7815 12.8123 52.2844C11.3974 52.8287 9.95497 53.2981 8.49083 53.6908C7.04904 54.0837 5.67404 54.398 4.63297 54.6062C4.19525 54.6959 3.75508 54.7732 3.31297 54.838L2.79047 54.889C2.52801 54.9127 2.26347 54.8833 2.01261 54.8026C1.64389 54.6953 1.31473 54.4822 1.06583 54.1898C0.852058 53.9421 0.703516 53.6451 0.633683 53.3255C0.583988 53.0986 0.568102 52.8656 0.58654 52.634C0.598326 52.4769 0.621897 52.2962 0.645469 52.1312C0.69654 51.7855 0.775112 51.3337 0.881183 50.819C1.0894 49.7819 1.41154 48.4147 1.8044 46.9808C2.19725 45.5508 2.67654 44.0187 3.21475 42.679C3.71761 41.418 4.36975 40.0587 5.20261 39.1905C5.92168 38.4222 6.78773 37.8062 7.74939 37.379C8.71105 36.9519 9.74872 36.7222 10.8008 36.7037Z" fill="#98D3FF"/>
</svg>
