<svg width="63" height="63" viewBox="0 0 63 63" fill="none" xmlns="http://www.w3.org/2000/svg">
<path d="M59.1328 18.1693C61.4661 20.5026 61.4661 24.2943 59.1328 26.3359L50.9661 34.5026L28.2161 11.7526L36.3828 3.58594C38.7161 1.2526 42.5078 1.2526 44.5494 3.58594L49.7994 8.83594L58.5494 0.0859375L62.6328 4.16927L53.8828 12.9193L59.1328 18.1693ZM42.2161 35.0859L38.1328 31.0026L29.9661 39.1693L23.8411 33.0443L32.0078 24.8776L27.9244 20.7943L19.7578 28.9609L15.3828 24.8776L7.2161 33.0443C4.88277 35.3776 4.88277 39.1693 7.2161 41.2109L12.4661 46.4609L0.799438 58.1276L4.88277 62.2109L16.5494 50.5443L21.7994 55.7943C24.1328 58.1276 27.9244 58.1276 29.9661 55.7943L38.1328 47.6276L34.0494 43.5443L42.2161 35.0859Z" fill="#98D3FF"/>
</svg>
