<svg width="45" height="60" viewBox="0 0 45 60" fill="none" xmlns="http://www.w3.org/2000/svg">
<path d="M8.48643 2.66043H25.2963L25.0865 2.74332L24.1049 3.07744C22.5708 3.60138 21.2389 4.592 20.2959 5.91059C19.3529 7.22917 18.8458 8.80969 18.8458 10.4308C18.8458 12.0519 19.3529 13.6324 20.2959 14.951C21.2389 16.2696 22.5708 17.2602 24.1049 17.7842L25.0865 18.1209C25.4606 18.2485 25.8005 18.46 26.0802 18.7393C26.3599 19.0185 26.572 19.3581 26.7002 19.7319L27.0343 20.711C27.3658 21.6838 27.887 22.5812 28.5677 23.3512C29.2484 24.1212 30.0751 24.7485 30.9998 25.1968C31.9246 25.6451 32.9292 25.9055 33.9553 25.9629C34.9814 26.0203 36.0088 25.8736 36.9778 25.5312V46.6925C36.9778 48.7533 36.1591 50.7298 34.7019 52.187C33.2447 53.6442 31.2683 54.4629 29.2074 54.4629H8.48643C6.4256 54.4629 4.44918 53.6442 2.99195 52.187C1.53473 50.7298 0.716064 48.7533 0.716064 46.6925V10.4308C0.716064 8.36997 1.53473 6.39355 2.99195 4.93632C4.44918 3.4791 6.4256 2.66043 8.48643 2.66043ZM18.8469 38.9221C17.8165 38.9221 16.8283 39.3315 16.0997 40.0601C15.3711 40.7887 14.9617 41.7769 14.9617 42.8073C14.9617 43.8377 15.3711 44.826 16.0997 45.5546C16.8283 46.2832 17.8165 46.6925 18.8469 46.6925C19.8773 46.6925 20.8656 46.2832 21.5942 45.5546C22.3228 44.826 22.7321 43.8377 22.7321 42.8073C22.7321 41.7769 22.3228 40.7887 21.5942 40.0601C20.8656 39.3315 19.8773 38.9221 18.8469 38.9221ZM34.3877 0.0703125C34.8722 0.0703114 35.3471 0.206237 35.7582 0.462642C36.1694 0.719046 36.5004 1.08565 36.7136 1.52078L36.8379 1.82383L37.1746 2.80289C37.53 3.8446 38.1026 4.79892 38.8546 5.60267C39.6065 6.40641 40.5206 7.04124 41.5364 7.46511L42.0156 7.64642L42.9946 7.98055C43.4795 8.14596 43.9044 8.45143 44.2156 8.85833C44.5269 9.26523 44.7105 9.75529 44.7432 10.2665C44.7759 10.7778 44.6563 11.2872 44.3994 11.7305C44.1426 12.1737 43.7601 12.5309 43.3003 12.7567L42.9946 12.8811L42.0156 13.2178C40.9739 13.5731 40.0196 14.1458 39.2158 14.8977C38.4121 15.6497 37.7772 16.5638 37.3534 17.5795L37.1721 18.0587L36.8379 19.0378C36.6722 19.5225 36.3665 19.9472 35.9595 20.2582C35.5524 20.5691 35.0623 20.7524 34.5511 20.7849C34.0398 20.8173 33.5305 20.6974 33.0874 20.4404C32.6443 20.1833 32.2874 19.8007 32.0617 19.3408L31.9374 19.0378L31.6007 18.0587C31.2453 17.017 30.6727 16.0627 29.9208 15.2589C29.1688 14.4552 28.2547 13.8204 27.2389 13.3965L26.7598 13.2152L25.7807 12.8811C25.2958 12.7156 24.8709 12.4102 24.5597 12.0033C24.2485 11.5964 24.0649 11.1063 24.0322 10.5951C23.9995 10.0838 24.1191 9.57438 24.3759 9.13112C24.6327 8.68787 25.0152 8.33073 25.4751 8.10487L25.7807 7.98055L26.7598 7.64383C27.8015 7.28846 28.7558 6.71584 29.5595 5.96389C30.3633 5.21195 30.9981 4.29782 31.422 3.28206L31.6033 2.80289L31.9374 1.82383C32.1119 1.3125 32.442 0.868549 32.8813 0.55412C33.3207 0.239691 33.8474 0.0705281 34.3877 0.0703125Z" fill="white"/>
</svg>
