<svg width="56" height="46" viewBox="0 0 56 46" fill="none" xmlns="http://www.w3.org/2000/svg">
<path fill-rule="evenodd" clip-rule="evenodd" d="M0.317871 43.948C0.317871 42.8839 1.18024 42.0224 2.24065 42.0224H53.5466C54.607 42.0224 55.4694 42.8839 55.4694 43.948C55.4694 45.0122 54.607 45.8736 53.5466 45.8736H2.24065C1.73313 45.8756 1.24555 45.674 0.885034 45.3129C0.524514 44.9519 0.320524 44.461 0.317871 43.948ZM7.0614 2.52254C4.8052 4.77751 4.8052 8.41079 4.8052 15.6723V28.5104C4.8052 33.3497 4.8052 35.7719 6.30933 37.2769C7.81346 38.7819 10.2301 38.7794 15.0684 38.7794H40.7189C45.5571 38.7794 47.9763 38.7794 49.4779 37.2744C50.9821 35.7719 50.9821 33.3497 50.9821 28.5079V15.6723C50.9821 8.41079 50.982 4.77751 48.7258 2.52254C46.4722 0.267578 42.8447 0.267578 35.5898 0.267578H20.1975C12.9426 0.267578 9.31509 0.267578 7.0614 2.52254ZM18.2747 31.077C18.2747 30.0129 19.1346 29.1514 20.1975 29.1514H35.5898C36.6527 29.1514 37.5126 30.0129 37.5126 31.077C37.5126 32.1411 36.6527 33.0026 35.5898 33.0026H20.1975C19.69 33.0046 19.2024 32.8029 18.8419 32.4419C18.4813 32.0809 18.2774 31.5899 18.2747 31.077Z" fill="#98D3FF"/>
</svg>
