<svg width="60" height="64" viewBox="0 0 60 64" fill="none" xmlns="http://www.w3.org/2000/svg">
<path d="M45.144 1.05681L46.362 4.80531C46.7401 5.94584 47.3798 6.98206 48.2301 7.83108C49.0803 8.6801 50.1175 9.31836 51.2585 9.69481L55.007 10.9128L55.0805 10.9338C55.3696 11.0356 55.62 11.2246 55.7972 11.4747C55.9743 11.7249 56.0694 12.0238 56.0694 12.3303C56.0694 12.6368 55.9743 12.9358 55.7972 13.1859C55.62 13.436 55.3696 13.625 55.0805 13.7268L51.332 14.9448C50.191 15.3213 49.1538 15.9595 48.3036 16.8085C47.4533 17.6576 46.8136 18.6938 46.4355 19.8343L45.2175 23.5793C45.1157 23.8684 44.9268 24.1188 44.6766 24.296C44.4265 24.4731 44.1275 24.5682 43.821 24.5682C43.5145 24.5682 43.2156 24.4731 42.9654 24.296C42.7153 24.1188 42.5263 23.8684 42.4245 23.5793L41.203 19.8343C40.8279 18.6912 40.1902 17.652 39.341 16.7998C38.4913 15.946 37.4532 15.3035 36.31 14.9238L32.5615 13.7058C32.2724 13.604 32.022 13.415 31.8449 13.1649C31.6677 12.9148 31.5726 12.6158 31.5726 12.3093C31.5726 12.0028 31.6677 11.7039 31.8449 11.4537C32.022 11.2036 32.2724 11.0146 32.5615 10.9128L36.31 9.69481C37.4368 9.30818 38.4586 8.66536 39.2949 7.81693C40.1312 6.9685 40.7592 5.93759 41.1295 4.80531L42.3475 1.06031C42.4486 0.769979 42.6375 0.5183 42.888 0.340198C43.1386 0.162097 43.4384 0.0664062 43.7458 0.0664062C44.0532 0.0664063 44.353 0.162097 44.6035 0.340198C44.8541 0.5183 45.043 0.766479 45.144 1.05681ZM62.3115 28.8188L59.6305 27.9508C58.817 27.6788 58.0779 27.2213 57.4717 26.6145C56.8654 26.0077 56.4087 25.2681 56.1375 24.4543L55.2625 21.7803C55.1901 21.5736 55.0551 21.3945 54.8764 21.2677C54.6978 21.141 54.4841 21.0729 54.265 21.0729C54.0459 21.0729 53.8323 21.141 53.6536 21.2677C53.4749 21.3945 53.34 21.5736 53.2675 21.7803L52.3995 24.4543C52.1333 25.2629 51.684 25.9991 51.0867 26.6056C50.4893 27.212 49.76 27.6724 48.9555 27.9508L46.278 28.8188C46.0729 28.8929 45.8955 29.0284 45.7702 29.2069C45.6449 29.3854 45.5776 29.5982 45.5776 29.8163C45.5776 30.0344 45.6449 30.2472 45.7702 30.4257C45.8955 30.6042 46.0729 30.7398 46.278 30.8138L48.9555 31.6853C49.7715 31.9574 50.5127 32.4161 51.1203 33.0249C51.7278 33.6337 52.185 34.3758 52.4555 35.1923L53.3235 37.8663C53.396 38.0731 53.5309 38.2522 53.7096 38.3789C53.8883 38.5056 54.102 38.5737 54.321 38.5737C54.5401 38.5737 54.7537 38.5056 54.9324 38.3789C55.1111 38.2522 55.2461 38.0731 55.3185 37.8663L56.19 35.1923C56.4615 34.3781 56.9188 33.6384 57.5257 33.0315C58.1326 32.4246 58.8724 31.9673 59.6865 31.6958L62.364 30.8278C62.5692 30.7538 62.7465 30.6182 62.8718 30.4397C62.9972 30.2612 63.0644 30.0484 63.0644 29.8303C63.0644 29.6122 62.9972 29.3994 62.8718 29.2209C62.7465 29.0424 62.5692 28.9069 62.364 28.8328L62.3115 28.8188ZM54.328 42.0698C53.3968 42.0687 52.4872 41.7883 51.717 41.2648C50.947 40.7048 50.387 39.9663 50.037 39.0913L49.127 36.2843C49.0347 35.9888 48.8656 35.7231 48.637 35.5143C48.4194 35.2965 48.1565 35.1292 47.867 35.0243L45.2 34.1493C44.255 33.7993 43.485 33.2358 42.925 32.4658C42.365 31.6958 42.085 30.7823 42.085 29.8338C42.085 29.1688 42.225 28.5038 42.505 27.9088C41.945 27.7688 41.42 27.5238 40.93 27.1738C40.0972 26.5634 39.463 25.7209 39.1065 24.7518L37.8465 20.9298C37.5315 20.1248 37.2165 19.6698 36.8315 19.2848C36.3615 18.8309 35.7993 18.4835 35.183 18.2663L31.4695 17.0413C30.8645 16.84 30.3045 16.5226 29.821 16.1068V60.4518C31.1903 61.6665 32.8557 62.4985 34.6492 62.8638C36.4427 63.2292 38.3009 63.115 40.0361 62.5328C41.7714 61.9506 43.3224 60.9209 44.5327 59.5478C45.7429 58.1746 46.5695 56.5065 46.929 54.7118L47.0585 54.0573C49.7967 53.4765 52.2246 51.9065 53.8777 49.6477C55.5308 47.3889 56.293 44.5999 56.0185 41.8143C55.4728 41.9913 54.9017 42.0776 54.328 42.0698ZM26.321 8.68681C25.1703 7.85105 23.8279 7.3181 22.4174 7.13698C21.0068 6.95586 19.5733 7.1324 18.2488 7.65035C16.9243 8.1683 15.7513 9.01103 14.8378 10.101C13.9243 11.191 13.2995 12.4932 13.021 13.8878L12.5835 16.0823L11.1625 16.3658C9.02222 16.7951 7.09655 17.9522 5.71267 19.6404C4.32878 21.3286 3.57205 23.4439 3.57102 25.6268V26.3198C3.57102 28.8608 4.65602 31.1498 6.38852 32.7493C4.27238 33.7979 2.53535 35.4795 1.41874 37.5606C0.302137 39.6416 -0.13861 42.0188 0.157732 44.3618C0.454073 46.7048 1.47279 48.8974 3.07236 50.6349C4.67194 52.3724 6.77294 53.5686 9.08352 54.0573L9.21302 54.7048C9.57209 56.4998 10.3983 58.1683 11.6083 59.5419C12.8184 60.9155 14.3693 61.9455 16.1047 62.5281C17.84 63.1107 19.6984 63.2252 21.4921 62.8601C23.2859 62.4949 24.9515 61.663 26.321 60.4483V8.68681Z" fill="#98D3FF"/>
</svg>
