<svg width="70" height="71" viewBox="0 0 70 71" fill="none" xmlns="http://www.w3.org/2000/svg">
<path d="M39.446 4.66992C39.446 3.5096 38.9851 2.3968 38.1646 1.57633C37.3442 0.755858 36.2314 0.294922 35.071 0.294922C33.9107 0.294922 32.7979 0.755858 31.9775 1.57633C31.157 2.3968 30.696 3.5096 30.696 4.66992V9.04492C30.696 10.2052 31.157 11.318 31.9775 12.1385C32.7979 12.959 33.9107 13.4199 35.071 13.4199C36.2314 13.4199 37.3442 12.959 38.1646 12.1385C38.9851 11.318 39.446 10.2052 39.446 9.04492V4.66992ZM59.8204 16.7318C60.6174 15.9067 61.0583 14.8015 61.0484 13.6544C61.0384 12.5073 60.5783 11.41 59.7671 10.5988C58.956 9.78768 57.8587 9.32757 56.7116 9.3176C55.5644 9.30763 54.4593 9.7486 53.6342 10.5455L50.541 13.6387C49.7441 14.4638 49.3031 15.5689 49.3131 16.7161C49.3231 17.8632 49.7832 18.9605 50.5943 19.7716C51.4055 20.5828 52.5028 21.0429 53.6499 21.0529C54.797 21.0628 55.9022 20.6219 56.7273 19.8249L59.8204 16.7318ZM70.071 35.2949C70.071 36.4552 69.6101 37.568 68.7896 38.3885C67.9692 39.209 66.8564 39.6699 65.696 39.6699H61.321C60.1607 39.6699 59.0479 39.209 58.2275 38.3885C57.407 37.568 56.946 36.4552 56.946 35.2949C56.946 34.1346 57.407 33.0218 58.2275 32.2013C59.0479 31.3809 60.1607 30.9199 61.321 30.9199H65.696C66.8564 30.9199 67.9692 31.3809 68.7896 32.2013C69.6101 33.0218 70.071 34.1346 70.071 35.2949ZM13.4148 19.8249C13.8184 20.2428 14.3011 20.5761 14.8349 20.8054C15.3687 21.0347 15.9428 21.1553 16.5237 21.1604C17.1046 21.1654 17.6807 21.0547 18.2183 20.8348C18.756 20.6148 19.2445 20.2899 19.6553 19.8792C20.0661 19.4684 20.3909 18.9799 20.6109 18.4422C20.8309 17.9045 20.9416 17.3285 20.9365 16.7475C20.9315 16.1666 20.8108 15.5925 20.5815 15.0588C20.3522 14.525 20.0189 14.0423 19.601 13.6387L16.5079 10.5455C15.6828 9.7486 14.5777 9.30763 13.4305 9.3176C12.2834 9.32757 11.1861 9.78768 10.375 10.5988C9.5638 11.41 9.10369 12.5073 9.09372 13.6544C9.08375 14.8015 9.52473 15.9067 10.3217 16.7318L13.4148 19.8249ZM13.196 35.2949C13.196 36.4552 12.7351 37.568 11.9146 38.3885C11.0942 39.209 9.98137 39.6699 8.82104 39.6699H4.44604C3.28572 39.6699 2.17292 39.209 1.35245 38.3885C0.531981 37.568 0.0710449 36.4552 0.0710449 35.2949C0.0710449 34.1346 0.531981 33.0218 1.35245 32.2013C2.17292 31.3809 3.28572 30.9199 4.44604 30.9199H8.82104C9.98137 30.9199 11.0942 31.3809 11.9146 32.2013C12.7351 33.0218 13.196 34.1346 13.196 35.2949ZM26.321 61.5449V57.1699H43.821V61.5449C43.821 63.8656 42.8992 66.0912 41.2582 67.7321C39.6173 69.373 37.3917 70.2949 35.071 70.2949C32.7504 70.2949 30.5248 69.373 28.8839 67.7321C27.2429 66.0912 26.321 63.8656 26.321 61.5449ZM43.821 52.7949C43.8867 51.3074 44.731 49.9687 45.9079 49.0368C48.7634 46.7848 50.8464 43.6991 51.8673 40.2087C52.8882 36.7183 52.7964 32.9966 51.6046 29.5607C50.4128 26.1249 48.1802 23.1457 45.2171 21.0373C42.254 18.9289 38.7077 17.7959 35.071 17.7959C31.4344 17.7959 27.8881 18.9289 24.925 21.0373C21.9619 23.1457 19.7293 26.1249 18.5375 29.5607C17.3457 32.9966 17.2539 36.7183 18.2748 40.2087C19.2957 43.6991 21.3787 46.7848 24.2342 49.0368C25.4154 49.9687 26.2554 51.3074 26.3167 52.7949H43.821Z" fill="#98D3FF"/>
</svg>
