<svg width="62" height="62" viewBox="0 0 62 62" fill="none" xmlns="http://www.w3.org/2000/svg">
<path d="M52.6058 44.4199C51.0484 44.4279 49.5219 44.8556 48.1871 45.658L33.824 31.2949L48.1893 16.9296C49.5228 17.7334 51.0488 18.162 52.6058 18.1699C54.3364 18.1699 56.0281 17.6567 57.4671 16.6953C58.906 15.7338 60.0275 14.3673 60.6898 12.7684C61.352 11.1696 61.5253 9.41022 61.1877 7.71288C60.8501 6.01555 60.0167 4.45645 58.793 3.23274C57.5693 2.00903 56.0102 1.17568 54.3129 0.838055C52.6155 0.500434 50.8562 0.673713 49.2574 1.33598C47.6585 1.99825 46.2919 3.11976 45.3305 4.55869C44.369 5.99762 43.8558 7.68934 43.8558 9.41992C43.8638 10.977 44.2923 12.5029 45.0961 13.8365L30.7308 28.2018L16.3677 13.8387C17.1701 12.5038 17.5979 10.9774 17.6058 9.41992C17.6058 7.68934 17.0927 5.99762 16.1312 4.55869C15.1697 3.11976 13.8032 1.99825 12.2043 1.33598C10.6055 0.673713 8.84613 0.500434 7.1488 0.838055C5.45146 1.17568 3.89236 2.00903 2.66865 3.23274C1.44494 4.45645 0.611588 6.01555 0.273968 7.71288C-0.063653 9.41022 0.109626 11.1696 0.771893 12.7684C1.43416 14.3673 2.55567 15.7338 3.9946 16.6953C5.43353 17.6567 7.12525 18.1699 8.85584 18.1699C10.4133 18.162 11.9398 17.7342 13.2746 16.9318L27.6377 31.2949L13.2724 45.6602C11.9389 44.8564 10.4129 44.4279 8.85584 44.4199C7.12525 44.4199 5.43353 44.9331 3.9946 45.8946C2.55567 46.856 1.43416 48.2226 0.771893 49.8214C0.109626 51.4203 -0.063653 53.1796 0.273968 54.877C0.611588 56.5743 1.44494 58.1334 2.66865 59.3571C3.89236 60.5808 5.45146 61.4142 7.1488 61.7518C8.84613 62.0894 10.6055 61.9161 12.2043 61.2539C13.8032 60.5916 15.1697 59.4701 16.1312 58.0312C17.0927 56.5922 17.6058 54.9005 17.6058 53.1699C17.5979 51.6129 17.1693 50.0869 16.3655 48.7534L30.7308 34.388L45.094 48.7512C44.2915 50.086 43.8638 51.6125 43.8558 53.1699C43.8558 54.9005 44.369 56.5922 45.3305 58.0312C46.2919 59.4701 47.6585 60.5916 49.2574 61.2539C50.8562 61.9161 52.6155 62.0894 54.3129 61.7518C56.0102 61.4142 57.5693 60.5808 58.793 59.3571C60.0167 58.1334 60.8501 56.5743 61.1877 54.877C61.5253 53.1796 61.352 51.4203 60.6898 49.8214C60.0275 48.2226 58.906 46.856 57.4671 45.8946C56.0281 44.9331 54.3364 44.4199 52.6058 44.4199ZM52.6058 5.04493C53.4711 5.04493 54.317 5.30151 55.0365 5.78225C55.7559 6.26298 56.3167 6.94626 56.6478 7.74568C56.9789 8.54511 57.0656 9.42478 56.8968 10.2734C56.728 11.1221 56.3113 11.9017 55.6994 12.5135C55.0876 13.1254 54.308 13.5421 53.4594 13.7109C52.6107 13.8797 51.731 13.793 50.9316 13.4619C50.1322 13.1308 49.4489 12.57 48.9682 11.8505C48.4874 11.1311 48.2308 10.2852 48.2308 9.41992C48.2308 8.2596 48.6918 7.1468 49.5122 6.32633C50.3327 5.50586 51.4455 5.04493 52.6058 5.04493ZM8.85584 57.5449C7.99055 57.5449 7.14468 57.2883 6.42522 56.8076C5.70575 56.3269 5.145 55.6436 4.81386 54.8442C4.48273 54.0447 4.39609 53.1651 4.5649 52.3164C4.73371 51.4677 5.15039 50.6882 5.76225 50.0763C6.3741 49.4645 7.15365 49.0478 8.00232 48.879C8.85098 48.7102 9.73065 48.7968 10.5301 49.1279C11.3295 49.4591 12.0128 50.0198 12.4935 50.7393C12.9742 51.4588 13.2308 52.3046 13.2308 53.1699C13.2308 54.3302 12.7699 55.443 11.9494 56.2635C11.129 57.084 10.0162 57.5449 8.85584 57.5449Z" fill="white"/>
</svg>
